<?xml version="1.0" standalone="no"?>
<!DOCTYPE svg PUBLIC "-//W3C//DTD SVG 20010904//EN"
 "http://www.w3.org/TR/2001/REC-SVG-20010904/DTD/svg10.dtd">
<svg version="1.0" xmlns="http://www.w3.org/2000/svg"
 width="200.000000pt" height="200.000000pt" viewBox="0 0 200.000000 200.000000"
 preserveAspectRatio="xMidYMid meet">

<g transform="translate(0.000000,200.000000) scale(0.100000,-0.100000)"
fill="#000000" stroke="none">
<path d="M813 1888 c-6 -7 -48 -136 -94 -286 l-84 -272 -35 -6 c-239 -37 -356
-89 -324 -141 16 -28 112 -71 194 -87 159 -32 270 -40 530 -41 335 0 534 25
663 82 139 62 58 133 -207 178 -49 8 -90 16 -91 18 -1 1 -39 124 -85 272 -45
149 -89 276 -96 284 -11 12 -22 6 -70 -38 -55 -48 -61 -51 -114 -51 -53 0 -59
3 -112 50 -31 28 -58 50 -61 50 -2 0 -9 -6 -14 -12z"/>
<path d="M690 967 c0 -21 29 -56 60 -72 61 -32 178 -8 196 40 8 21 100 21 108
0 10 -28 69 -55 119 -55 54 0 98 19 121 52 34 48 37 48 -294 48 -245 0 -310
-3 -310 -13z"/>
<path d="M505 852 c-177 -72 -176 -69 -71 -215 42 -58 76 -108 76 -111 0 -3
-15 -6 -33 -6 -41 0 -128 -25 -181 -52 -52 -26 -130 -100 -160 -152 -29 -50
-56 -138 -56 -183 l0 -33 920 0 920 0 0 33 c0 120 -101 276 -217 335 -52 27
-139 52 -180 52 -18 0 -33 3 -33 6 0 3 34 53 76 111 106 147 107 143 -75 215
-80 32 -145 57 -146 55 -1 -1 -7 -20 -13 -42 -16 -58 -66 -129 -115 -165 -51
-37 -152 -70 -217 -70 -72 0 -172 35 -228 80 -50 39 -112 140 -112 182 0 10
-3 18 -7 17 -5 0 -71 -26 -148 -57z"/>
</g>
</svg>
