<?xml version="1.0" standalone="no"?>
<!DOCTYPE svg PUBLIC "-//W3C//DTD SVG 20010904//EN"
 "http://www.w3.org/TR/2001/REC-SVG-20010904/DTD/svg10.dtd">
<svg version="1.0" xmlns="http://www.w3.org/2000/svg"
 width="1200.000000pt" height="1200.000000pt" viewBox="0 0 1200.000000 1200.000000"
 preserveAspectRatio="xMidYMid meet">

<g transform="translate(0.000000,1200.000000) scale(0.100000,-0.100000)"
fill="#000000" stroke="none">
<path d="M5640 11989 c-1113 -69 -2169 -437 -3075 -1071 -484 -339 -917 -749
-1290 -1223 -1232 -1566 -1600 -3666 -975 -5565 225 -685 556 -1298 1003
-1860 1004 -1261 2450 -2059 4049 -2235 342 -37 810 -43 1143 -15 1843 158
3486 1132 4510 2675 822 1237 1150 2736 924 4223 -259 1713 -1275 3248 -2763
4177 -1043 652 -2300 971 -3526 894z m708 -769 c1256 -89 2402 -601 3300
-1474 1016 -989 1582 -2329 1582 -3746 0 -1691 -812 -3268 -2192 -4257 -1062
-762 -2382 -1096 -3688 -933 -1414 176 -2693 923 -3550 2075 -803 1077 -1157
2424 -990 3765 195 1564 1084 2951 2432 3794 706 442 1542 714 2383 774 174
13 553 14 723 2z"/>
<path d="M5965 9953 c-633 -25 -1165 -196 -1589 -512 -458 -341 -776 -824
-881 -1339 -23 -114 -51 -320 -44 -326 5 -4 1303 -164 1306 -161 2 1 21 64 42
141 93 326 210 543 396 730 228 229 489 344 853 375 146 12 331 2 469 -27 443
-91 769 -378 865 -761 31 -123 30 -313 -1 -432 -72 -274 -177 -392 -806 -916
-321 -266 -484 -415 -615 -560 -308 -341 -435 -604 -501 -1040 -19 -120 -22
-186 -23 -460 l-1 -320 648 -3 647 -2 0 117 c0 256 28 489 77 637 60 183 231
373 693 768 827 706 1117 1064 1245 1531 51 188 67 416 44 625 -37 345 -158
643 -381 939 -86 115 -299 333 -413 423 -373 295 -827 476 -1365 544 -120 16
-487 38 -560 34 -19 -1 -66 -3 -105 -5z"/>
<path d="M5430 3080 l0 -660 660 0 660 0 0 660 0 660 -660 0 -660 0 0 -660z"/>
</g>
</svg>
